<svg xmlns="http://www.w3.org/2000/svg" viewBox="0 0 64 64" id="restaurant">
  <g>
    <path fill="#666" d="M30,34.29V32a2,2,0,0,1,2-2h0a2,2,0,0,1,2,2v2.29"></path>
    <polyline fill="#999" points="62 22 62 62 58 62 58 24.826"></polyline>
    <path fill="#bfbfbf" d="M60,23.413V58a2,2,0,0,1-2,2V24.826Z"></path>
    <polyline fill="#999" points="2 22 2 62 6 62 6 24.826"></polyline>
    <path fill="#bfbfbf" d="M4,23.413V58a2,2,0,0,0,2,2V24.826Z"></path>
    <path fill="#296136" d="M62,18v4h0a3,3,0,0,1-3,3h0a3,3,0,0,1-3-3h0a3,3,0,0,1-3,3h0a3,3,0,0,1-3-3h0a3,3,0,0,1-3,3h0a3,3,0,0,1-3-3h0a3,3,0,0,1-3,3h0a3,3,0,0,1-3-3h0a3,3,0,0,1-3,3h0a3,3,0,0,1-3-3h0a3,3,0,0,1-3,3h0a3,3,0,0,1-3-3h0a3,3,0,0,1-3,3h0a3,3,0,0,1-3-3h0a3,3,0,0,1-3,3h0a3,3,0,0,1-3-3h0a3,3,0,0,1-3,3h0a3,3,0,0,1-3-3H8a3,3,0,0,1-3,3H5a3,3,0,0,1-3-3H2V18Z"></path>
    <rect width="60" height="16" x="2" y="2" fill="#479b60"></rect>
    <path fill="#4ba86d" d="M8 18v4a3 3 0 003 3h0a3 3 0 003-3V18M20 18v4a3 3 0 003 3h0a3 3 0 003-3V18M32 18v4a3 3 0 003 3h0a3 3 0 003-3V18M44 18v4a3 3 0 003 3h0a3 3 0 003-3V18M56 18v4a3 3 0 003 3h0a3 3 0 003-3V18"></path>
    <path fill="#fff" d="M24.5 15A3.5 3.5 0 0121 11.5 3.407 3.407 0 0122.9 8.435l.658-.33.894 1.79-.658.329A1.42 1.42 0 0023 11.5a1.5 1.5 0 003 0V5h2v6.5A3.5 3.5 0 0124.5 15zM32 11H30v-.172a5.868 5.868 0 00-1.707-4.121l1.414-1.414A7.883 7.883 0 0132 10.828z"></path>
    <path fill="#fff" d="M29,15V13a5.006,5.006,0,0,0,5-5V6a1,1,0,0,1,1.919-.394l2.212,5.163A2.032,2.032,0,0,0,40,12h1a2,2,0,0,0-2-2V8a4,4,0,0,1,4,4v1a1,1,0,0,1-1,1H40a4.03,4.03,0,0,1-3.707-2.443l-.619-1.445A7.012,7.012,0,0,1,29,15Z"></path>
    <rect width="24" height="4" x="20" y="41" fill="#6c3c17"></rect>
    <path fill="#999" d="M25,41a7,7,0,0,1,14,0"></path>
    <path fill="#479b60" d="M43,45h0a13.162,13.162,0,0,0-9,12.487V58l2.058.412A3.659,3.659,0,0,1,39,62H25a3.659,3.659,0,0,1,2.942-3.588L30,58v-.513A13.162,13.162,0,0,0,21,45h0"></path>
    <path fill="#4ba86d" d="M36.058,58.412,34,58v-.513A13.162,13.162,0,0,1,43,45H23a13.162,13.162,0,0,1,9,12.487V58l-2.058.412A3.659,3.659,0,0,0,27,62H39A3.659,3.659,0,0,0,36.058,58.412Z"></path>
    <path fill="#9a5121" d="M24,43H44V41H22A2,2,0,0,0,24,43Z"></path>
    <polyline fill="#9a5121" points="10 54 21 54 21 50 10 50"></polyline>
    <rect width="11" height="2" x="10" y="52" fill="#6c3c17"></rect>
    <rect width="2" height="13" x="20" y="50" fill="#6c3c17"></rect>
    <rect width="2" height="25" x="9" y="38" fill="#6c3c17"></rect>
    <polyline fill="#9a5121" points="54 54 43 54 43 50 54 50"></polyline>
    <rect width="11" height="2" x="43" y="52" fill="#6c3c17"></rect>
    <rect width="2" height="13" x="42" y="50" fill="#6c3c17"></rect>
    <rect width="2" height="25" x="53" y="38" fill="#6c3c17"></rect>
    <path fill="#bfbfbf" d="M33,34.08A6.994,6.994,0,0,0,27,41H39A6.994,6.994,0,0,0,33,34.08Z"></path>
  </g>
</svg>
